<svg width="31" height="31" viewBox="0 0 31 31" fill="none" xmlns="http://www.w3.org/2000/svg">
<path d="M26.3224 4.66977C24.181 2.52932 21.453 1.07192 18.4833 0.481874C15.5136 -0.108171 12.4356 0.195635 9.6386 1.35487C6.84158 2.51411 4.45111 4.47672 2.76948 6.99453C1.08786 9.51233 0.190595 12.4722 0.191162 15.5C0.191162 19.5608 1.8038 23.4555 4.67452 26.3276C7.54525 29.1998 11.4391 30.8144 15.4999 30.8164C17.5095 30.8173 19.4997 30.4245 21.3582 29.6602C23.2109 28.8782 24.8961 27.7477 26.3224 26.3302C27.7448 24.908 28.8731 23.2196 29.6429 21.3614C30.4128 19.5031 30.809 17.5114 30.809 15.5C30.809 13.4886 30.4128 11.4969 29.6429 9.63861C28.8731 7.78035 27.7448 6.09193 26.3224 4.66977ZM25.2432 25.2356C23.0387 27.4495 20.1461 28.8469 17.0416 29.1977V19.0844H19.9399C20.3488 19.0844 20.7409 18.9219 21.03 18.6328C21.3192 18.3437 21.4816 17.9516 21.4816 17.5427C21.4816 17.1338 21.3192 16.7417 21.03 16.4526C20.7409 16.1634 20.3488 16.001 19.9399 16.001H17.0416V11.7769C17.0416 11.368 17.204 10.9759 17.4931 10.6867C17.7822 10.3976 18.1744 10.2352 18.5832 10.2352H20.4332C20.8421 10.2352 21.2342 10.0728 21.5234 9.78364C21.8125 9.49452 21.9749 9.1024 21.9749 8.69352C21.9749 8.28465 21.8125 7.89252 21.5234 7.6034C21.2342 7.31428 20.8421 7.15185 20.4332 7.15185H17.8124C16.7902 7.15185 15.8099 7.55792 15.0871 8.28071C14.3643 9.00351 13.9582 9.98383 13.9582 11.006V16.001H11.0753C10.6665 16.001 10.2743 16.1634 9.98521 16.4526C9.69609 16.7417 9.53366 17.1338 9.53366 17.5427C9.53366 17.9516 9.69609 18.3437 9.98521 18.6328C10.2743 18.9219 10.6665 19.0844 11.0753 19.0844H13.9582V29.1977C11.0952 28.871 8.40713 27.6532 6.27373 25.7161C4.14032 23.779 2.66941 21.2206 2.06876 18.4023C1.4681 15.584 1.76807 12.6482 2.92628 10.0096C4.08449 7.37097 6.04241 5.16292 8.52349 3.69732C11.0046 2.23172 13.8834 1.58264 16.7533 1.84177C19.6233 2.10089 22.3393 3.25513 24.5177 5.14143C26.6961 7.02774 28.2269 9.55078 28.8937 12.3542C29.5606 15.1576 29.3298 18.0996 28.2341 20.7648C27.5362 22.4347 26.5204 23.9532 25.2432 25.2356Z" fill="black" fill-opacity="0.5"/>
</svg>
